<svg width="32" height="32" viewBox="0 0 32 32" fill="none" xmlns="http://www.w3.org/2000/svg">
<g clip-path="url(#clip0_1083_50505)">
<path d="M31.9932 3.5H23.8727C23.2417 3.5 21.5966 4.51721 21.0682 4.99427C20.0237 5.93578 16.9656 9.25688 16.2411 10.4083C16.1059 10.7259 16.729 11.3578 16.729 11.4243V16.5034C16.5532 16.57 16.0214 15.922 15.9966 15.6904C15.9189 15.664 15.5268 15.4427 15.5076 15.4197L3.78477 28.4232C6.52843 28.4507 8.82929 28.8876 11.0535 26.8016C12.7516 25.2087 14.2423 23.0103 15.9527 21.3899C16.3054 21.32 20.3132 26.2489 21.0682 26.9289C21.5966 27.4071 23.2417 28.4232 23.8727 28.4232H31.9932L20.8901 16.0115L31.9932 3.5Z" fill="#FF8123"/>
<path d="M11.8051 12.7351C13.36 11.8394 11.929 11.6009 11.3566 10.5436H15.8738C13.413 8.09518 11.4952 4.44266 8.12056 3.5H0L8.21859 12.6021C9.39718 13.3498 10.5893 13.4369 11.8051 12.7351Z" fill="#2A2877"/>
<path d="M15.2293 15.3463L15.5076 15.4197C15.3273 15.2007 14.9206 14.0849 14.4665 14.4633L1.95378 28.3555C2.55096 28.4828 3.1797 28.4174 3.78477 28.4232L3.67209 28.1651C7.52411 23.893 11.3766 19.6201 15.2293 15.3463Z" fill="#F94300"/>
<path d="M15.2293 15.3463C11.3766 19.6201 7.52411 23.893 3.67209 28.1651L3.78476 28.4231L15.5076 15.4197L15.2293 15.3463Z" fill="#F94300"/>
<path d="M16.5465 16.1032C16.462 15.1583 16.4124 11.8257 16.4845 11.5849L16.729 11.4243C16.3301 11.7248 15.9606 10.7603 16.2411 10.4083C16.2208 10.4392 16.0958 10.4553 16.0586 10.5447C15.9392 10.8337 15.9346 15.1158 15.9966 15.6904C16.2253 15.6411 16.409 15.8555 16.5465 16.1032Z" fill="#F94300"/>
<path d="M16.729 11.4243C16.729 11.3578 16.1059 10.7259 16.2411 10.4083C15.9606 10.7603 16.3301 11.7248 16.729 11.4243Z" fill="#AE2127"/>
<path d="M16.5465 16.1032C16.622 16.2397 16.6828 16.3865 16.729 16.5034V11.4243L16.4845 11.5849C16.4124 11.8257 16.462 15.1583 16.5465 16.1032Z" fill="#F94300"/>
<path d="M16.729 16.5034C16.6524 16.4851 16.6141 16.4128 16.5814 16.3429C16.569 16.3153 16.5577 16.2305 16.5465 16.1032C16.409 15.8555 16.2254 15.641 15.9966 15.6903C16.0214 15.922 16.5532 16.5699 16.729 16.5034Z" fill="#AE2127"/>
<path d="M16.5814 16.3429C16.6141 16.4128 16.6524 16.4851 16.729 16.5034C16.6828 16.3865 16.622 16.2397 16.5465 16.1032C16.5577 16.2305 16.569 16.3154 16.5814 16.3429Z" fill="#AE2127"/>
</g>
<defs>
<clipPath id="clip0_1083_50505">
<rect width="32" height="25" fill="white" transform="translate(0 3.5)"/>
</clipPath>
</defs>
</svg>
